<?xml version="1.0" encoding="UTF-8"?>
<svg version="1.1" viewBox="0 0 2048 732" width="1280" height="1280" xmlns="http://www.w3.org/2000/svg">
<path transform="translate(1076)" d="m0 0h10l12 3 10 5 20 18 14 14 6 10 4 13v8h52l16 3 8 3 12-4 14-2h71l12 2 12 5 11 8 8 10 5 11 2 6 6-9 6-7 13-9 12-5 16-3h16l2-13 7-14 7-8 10-7 11-4 5-1h46l13 4 9 5 8 7 7 11 3 7v4h70l16 3 12 5 9 7 8 8 6 10 5 15 1 8 4 80v10l-2 11 1 9 2 9 2 33 14-5 10-2h17l2-6 8-14 9-12 12-13 14-11 16-9 18-6 10-2 16-1 18 2 17 5 16 8 10 7 13 11 9 10 9 13 8 14 1 3 18 1 16 4 16 8 9 7 8 8 7 11 5 11 3 13 2 32 11 219v11l-3 17-5 12-7 11-11 11-11 7-11 5-17 4h-264l-17-3-10 4-5 1h-92l-11-3-5-2-5 1-14 4h-107l-6-1-5 1h-185l-16-4-9 2-8 2h-75l-13-4-7-3-19 5-15 2h-47l-20-4-11-4-5 1-8 4-12 3h-185l-16-4-5-2-5 1-12 4-6 1h-59l-15-4-8-4-16 4-16 3-9 1h-50l-20-4-2-1-1 10-5 16-8 15-11 13-13 9-11 5-12 3-7 1h-95l-16-4-10-6-8-7-9-14-4-13-1-52-3-1-14 8-13 4-7 1h-71l-15-3-10-4-13-9-8-8-7-11-6-13-5 12-6 10-8 9-13 9-12 5-14 3h-71l-15-3-10-4-13-9-8-8-8-12-5-14-2-12v-9l43-442 2-14 5-13 6-10 10-11 10-7 11-5 11-3 8-1h169l16 3 12 5 5 2 10-6 9-3 7-1h50l14 3 2 1 3-12 6-11 10-10 14-7 8-2h53l11 3 10 5 10 9 7 12 3 9h80l16 3 7 2 14-4 10-1h70l12 2 9 3 13-4 8-1h85l12 2 6 2 6-1 14-3h51l14 3 8 1 13-3h26l32-52 7-8 9-6 9-4z" fill="#7D014F"/>
<path transform="translate(1076)" d="m0 0h10l12 3 10 5 20 18 14 14 6 10 4 13v8h52l16 3 8 3 12-4 14-2h71l12 2 12 5 11 8 8 10 5 11 2 6 6-9 6-7 13-9 12-5 16-3h16l2-13 7-14 7-8 10-7 11-4 5-1h46l13 4 9 5 8 7 7 11 3 7v4h70l16 3 12 5 9 7 8 8 6 10 5 15 1 8 4 80v10l-2 11 1 9 2 9 2 33 14-5 10-2h17l2-6 8-14 9-12 12-13 14-11 16-9 18-6 10-2 16-1 18 2 17 5 16 8 10 7 13 11 9 10 9 13 8 14 1 3 18 1 16 4 16 8 9 7 8 8 7 11 5 11 3 13 2 32 11 219v11l-3 17-5 12-7 11-11 11-11 7-11 5-17 4h-264l-17-3-10 4-5 1h-92l-11-3-5-2-5 1-14 4h-107l-6-1-5 1h-185l-16-4-9 2-8 2h-75l-13-4-7-3-19 5-15 2h-47l-20-4-11-4-5 1-8 4-12 3h-185l-16-4-5-2-5 1-12 4-6 1h-59l-15-4-8-4-16 4-16 3-9 1h-50l-20-4-2-1-1 10-5 16-8 15-11 13-13 9-11 5-12 3-7 1h-95l-16-4-10-6-8-7-9-14-4-13-1-52-3-1-14 8-13 4-7 1h-71l-15-3-10-4-13-9-8-8-7-11-6-13-5 12-6 10-8 9-13 9-12 5-14 3h-71l-15-3-10-4-13-9-8-8-8-12-5-14-2-12v-9l43-442 2-14 5-13 6-10 10-11 10-7 11-5 11-3 8-1h169l16 3 12 5 5 2 10-6 9-3 7-1h50l14 3 2 1 3-12 6-11 10-10 14-7 8-2h53l11 3 10 5 10 9 7 12 3 9h80l16 3 7 2 14-4 10-1h70l12 2 9 3 13-4 8-1h85l12 2 6 2 6-1 14-3h51l14 3 8 1 13-3h26l32-52 7-8 9-6 9-4zm0 24-10 4-7 8-17 28-11 18-3 8v9l-6 5-5-2-12-6-6-1h-9l-21 5-8 1-8-5-4-1h-53l-10 4-6 5-10-6-10-3h-87l-13 4-6 5-4-1-5-4-11-4h-74l-13 3-9 5-4-1-6-4-11-3h-85l-13 4-7-2v-19l-3-9-7-8-9-4h-51l-10 5-5 6-3 7-1 5v16l-6 2-6 4-5 1h-7l-6-5-8-3h-52l-10 4-7 7-3 7-1 12-6-12-7-8-9-6-8-3-6-1h-172l-13 4-9 6-7 7-6 12-2 10-41 421-2 21v11l4 13 6 9 7 7 14 7 5 1h72l13-4 10-7 7-8 5-11 3-25 5-55v-5h31v10l6 66 3 13 6 10 8 8 14 7 5 1h72l13-4 9-6 8-9 1-4 8 7 13 9 12 6-3 12v46l3 10 6 9 8 6 7 2h96l12-3 9-5 9-8 7-11 5-13 2-12 2-24v-10l13 9 10 5 14 4 5 1h52l18-3 16-5 7-3 4 1 8 6 11 4h57l10-3 9-6 4-2 8 6 10 4 5 1h183l10-4 8-6 2-5 13 8 14 5 10 2h48l17-3 18-6 5-2 2 4 9 6 4 1h72l12-6 3-2 12 6 8 2h183l7-2 6 2h105l12-6 7-8 6 8 9 5 3 1h90l10-5 4-3 10 4 8 2h265l13-4 10-6 8-7 7-12 3-13v-15l-12-240-3-15-6-11-6-7-10-7-12-5-12-2h-27l-1-6-10-21-8-11-9-10-10-9-15-9-15-5-12-2h-12l-16 3-15 6-12 8-10 9-10 11-8 13-6 12-3 8v3h-26l-16 3-14 7-10 9-6 9-4 13-3 47-10-10-12-7-15-4h-19l-48 8-1-51-3-9h83l10-4 7-7 4-10v-28l-1-14-4-11-3-4 2-4 4-11v-13l-4-78-4-13-7-9-9-6-11-3h-84l-10 2v-20l-4-10-8-7-7-3h-44l-10 5-6 7-3 8v27h-41l-14 4-10 7-6 7-5 12-1 5-4 98-1 25v14l2 9 5 9h-46l6-8 4-11v-36l-2-37-4-13-7-10-5-5 4-2 6-8 3-8v-31l-2-12-5-8-7-6-7-3-5-1h-74l-12 3-11 6h-4l-9-6-10-3h-87l-6 1 10-9 5-10v-13l-4-8-5-6-8-7-14-14-8-4-3-1z" fill="#E90397"/>
<path transform="translate(104,115)" d="m0 0h172l10 5 6 8 2 8 43 442v7l-4 10-8 7-5 2h-71l-8-4-7-8-2-6-8-87-3-7-3-2h-55l-4 2-2 4-8 86-2 9-6 8-6 4-3 1h-71l-10-5-6-9-1-3v-13l42-432 2-12 3-6 8-7z" fill="#FEC03F"/>
<path transform="translate(1842,242)" d="m0 0h16l12 3 14 7 10 9 5 5 7 9 9 17 5 16 1 7h44l10 3 9 6 6 9 2 7 12 236v21l-3 9-6 7-9 5-10 2h-250l-11-2-8-4-7-8-4-10v-22l11-229 2-12 4-6 8-7 10-4 5-1h43l2-11 6-17 8-14 12-14 11-8 12-6z" fill="#FEC03F"/>
<path transform="translate(332,315)" d="m0 0h91l4 4 1 2 2 27 9 163 1 12 3 7 4 3h12l3-86 5-127 3-4 3-1h73l4 2 2 4v10l-27 327-4 13-6 9-6 5-8 3h-95l-4-5-1-2v-47l3-6 6-3h49v-20h-64l-11-4-11-7-10-10-9-14-7-16-3-17-18-209v-8l4-4z" fill="#FEC03F"/>
<path transform="translate(592,315)" d="m0 0h145l11 4 10 9 4 7 2 14 11 241v13l-4 11-7 6-8 2h-46l-8-3-5-6-1-4v-8l-19 10-19 7-15 3-12 1h-34l-16-3-16-8-9-9-5-8-4-13-1-7v-12l4-59 2-10 6-12 9-9 12-6 5-1 81-4 10-3 4-3h2l2-4 2-5v-46l-4-5-10-3-11 1-8 4-1 2-1 21-2 8-5 5-5 2h-59l-8-3-5-6-1-2v-13l3-70 3-10 6-8 6-5z" fill="#FEC03F"/>
<path transform="translate(1018,315)" d="m0 0h80l4 2 1 2 1 205 2 8 5 3 9-1 17-7h2v-204l3-5 4-3h58l5 3 2 8 13 273v17l-3 5-3 1h-62l-5-3-2-5v-13l-19 10-18 7-15 3-10 1h-32l-15-3-10-4-9-7-7-9-6-12-4-17-1-9v-19l9-220 2-5z" fill="#FEC03F"/>
<path transform="translate(1472,315)" d="m0 0h82l5 3 1 2v74l21-4 48-8h19l11 4 10 9 5 10 1 7 11 194v12l-3 3-3 1h-79l-5-3-1-2v-52l1-71v-39l-2-6-5-2-8-1-20 3-1 169-6 4h-95l-5-3-1-1v-20l13-267 1-12z" fill="#FEC03F"/>
<path transform="translate(1272,315)" d="m0 0h143l11 4 6 5 4 6 3 10 4 72 1 30-3 6-4 3-13 2-34 2h-9l-8-4-3-5-1-5-1-40-5-5-8-1h-11l-3 3-1 2v114l4 10 6 7 9 5 4 1h22l47-2 7 3 4 5 2 6 2 46v16l-3 6-5 4-4 1h-171l-9-2-9-6-6-9-2-6v-25l8-209 1-24 3-10 4-6 7-6z" fill="#FEC03F"/>
<path transform="translate(822,315)" d="m0 0h143l11 4 7 6 5 10 2 15 4 78v15l-4 6-5 3-45 3h-9l-8-4-3-5-1-42-2-7-12-2h-11l-3 3-1 3v112l4 11 6 7 9 5 4 1h22l47-2 7 3 4 4 2 6 2 42v22l-4 7-8 3h-171l-9-2-9-6-6-9-2-7v-22l9-233 3-12 4-6 7-6z" fill="#FEC03F"/>
<path transform="translate(1850,361)" d="m0 0 12 1 13 5 10 9 4 5 4 8 2 7v4l9-2h13l13 4 10 7 7 8 4 8 2 6 1 13-2 10-6 12-9 9 2 4 7 9 4 10 1 5v13l-4 13-8 11-11 8-12 4h-15l-10-3-7 16-9 10-10 6-9 3h-17l-11-4-9-6-8-9-4-8-3-11-10 2h-10l-11-3-11-6-7-7-7-14-2-9v-8l3-12 5-9 7-8 2-1-2-4-6-8-4-8-2-8v-14l4-12 6-9 9-8 11-5 3-1h18l10 3 3-10 6-10 7-7 8-5 9-3z" fill="#fff"/>
<path transform="translate(1491,76)" d="m0 0h35l4 3 1 5 5 170v35l-3 2h-110l-10-4-6-7-1-3v-26l4-102 2-13 4-6 5-4 6-2 7-1h54v-44z" fill="#fff"/>
<path transform="translate(897,115)" d="m0 0h51l2 3v8l38-11h12l8 4 6 8 2 9 6 129v24l-3 2h-45l-4-4v-122l-2-3h-9l-8 2-1 125-3 2h-55l-4-3 1-34 5-125 1-12z" fill="#fff"/>
<path transform="translate(1118,115)" d="m0 0h88l9 6 3 5 1 4 6 130v22l-3 5-3 3-4 1h-27l-6-3-2-3v-6l-19 9-8 2-9 1h-22l-12-3-8-6-4-5-3-6-1-5v-15l2-29 3-10 6-7 8-4 33-2 17-1 7-3 3-4v-28l-4-3h-10l-4 2-1 2-1 15-4 4-3 1h-33l-6-3-2-2v-21l1-24 2-10 6-7z" fill="#fff"/>
<path transform="translate(773,115)" d="m0 0h87l6 3 6 7 1 3 2 33 5 109v10l-3 7-4 3-3 1h-28l-6-3-2-5v-4l-16 8-11 3-8 1h-22l-12-3-9-6-6-10-1-3v-25l2-25 3-8 7-7 7-3 31-2 19-1 7-3 3-6v-25l-2-3-3-1h-10l-4 3-1 15-4 5-3 1h-33l-7-3-2-4 2-49 4-8 5-4z" fill="#fff"/>
<path transform="translate(532,115)" d="m0 0h85l6 3 4 5 2 13 3 62v18l-4 4-3 1-51 1v13l3 5 5 3h46l5 5 1 6 1 30-3 5-4 2h-99l-7-3-6-7-1-4v-14l5-131 2-9 5-6z" fill="#fff"/>
<path transform="translate(1559,115)" d="m0 0h85l6 3 4 5 2 11 3 62v20l-4 4-3 1-49 1-2 2v11l3 5 5 3h47l4 5 1 4 1 32-3 5-4 2h-99l-7-3-5-6-2-5 1-37 4-105 2-12 5-6z" fill="#fff"/>
<path transform="translate(658,115)" d="m0 0h75l5 3 1 2 1 11v21l-3 6-7 3-23 1-8 3-2 3v11l5 5 7 2 15 1 11 4 6 7 2 8 2 40v25l-3 8-8 7-10 4-7 1h-75l-5-4v-12l1-22 2-4 2-1 45 1 5-3 2-3v-11l-5-5-22-1-10-2-8-4-6-8-4-10-1-6v-30l1-25 2-10 4-8 6-5z" fill="#fff"/>
<path transform="translate(1251,115)" d="m0 0h75l5 4 1 2 1 17v13l-3 6-4 3-4 1-22 1-8 3-2 2-1 9 2 7 11 3 15 1 11 4 5 6 2 5 1 6 2 47v15l-4 10-7 6-10 4-7 1h-75l-5-3v-21l1-15 4-4 45 1 5-3 2-4v-9l-3-5-3-1-22-1-12-3-6-4-6-8-4-13v-38l1-23 4-11 7-8z" fill="#fff"/>
<path transform="translate(447,76)" d="m0 0h41l4 3 1 35 13 1 2 2v39l-2 2-5 1h-9v88l13 1 3 2v39l-3 2h-54l-9-3-5-4-4-6-1-3v-21l3-77 1-16h-9l-3-3v-41l2-2h15l2-36z" fill="#fff"/>
<path transform="translate(335,115)" d="m0 0h49l2 3v9l20-4 9-1 4 2 1 4v43l-3 3-25 5-3 2-1 106-4 4h-55l-3-2v-27l6-144z" fill="#fff"/>
<path transform="translate(1039,115)" d="m0 0h49l2 3v170l-3 3h-53l-4-3v-22l6-147z" fill="#fff"/>
<path transform="translate(1845,350)" d="m0 0h16l12 4 10 6 8 8 7 14 3 8 5 1 6-1h10l13 3 12 7 8 8 5 8 4 12v19l-4 11-6 10-6 6v5l8 11 5 13 1 13-3 14-5 10-9 10-10 6-11 4h-19l-10-1-4 9-7 11-8 8-14 7-8 2h-13l-12-3-12-7-7-7-6-10-4-12-2-2h-25l-11-4-10-6-9-10-6-13-1-4v-20l5-13 7-9 4-4-1-7-7-9-5-13-1-14 3-14 7-12 8-8 12-7 13-3h8l10 2h6l8-16 7-8 7-6 10-5zm5 11-10 2-9 4-8 6-7 8-5 11-1 5-10-3h-18l-12 5-9 7-7 9-4 10-1 4v14l4 13 8 11 2 4-7 6-6 9-3 9-1 6v8l3 12 6 11 7 7 13 7 9 2h10l10-2 5 16 7 9 8 7 11 5 4 1h17l11-4 9-6 8-9 5-11 2-5 10 3h15l12-4 11-8 8-11 4-13v-13l-4-13-7-10-3-3 2-4 7-7 6-12 2-10-1-13-4-11-7-9-7-6-10-5-8-2h-13l-9 2-1-8-4-9-4-6-8-8-12-6-11-2z" fill="#9F7727"/>
<path transform="translate(186,220)" d="m0 0h8l5 4 2 11 13 138-2 7-5 4h-34l-5-5-1-2 1-19 12-128 2-6z" fill="#7D024F"/>
<path transform="translate(1843,257)" d="m0 0h14l10 3 11 6 12 12 8 13 6 15 1 9h-111l4-15 8-16 7-9 9-9 13-7z" fill="#7C014F"/>
<path transform="translate(1078,44)" d="m0 0h6l11 11 8 7 6 7-1 5-17 16-11 9-2 1h-27l-3-3v-6l12-19 16-26z" fill="#fff"/>
<path transform="translate(1474,161)" d="m0 0 14 2v82l-2 2-17-1-1-1v-79l4-4z" fill="#7B014F"/>
<path transform="translate(1775,408)" d="m0 0 10 1 8 6 5 10 9 25-1 6-5 3-10-2-13-5-10-6-7-8-2-4v-12l3-6 7-6z" fill="#0BB7AA"/>
<path transform="translate(1772,493)" d="m0 0 12 1 26 5 3 3v7l-5 6-11 9-8 5-9 3h-10l-8-4-4-5-3-8 1-9 5-8 7-4z" fill="#0BB7AA"/>
<path transform="translate(1919,414)" d="m0 0h12l8 5 4 5 2 7-1 9-4 6-6 5-3 1h-13l-27-5-4-3v-7l7-8 10-8 12-6z" fill="#0BB7AA"/>
<path transform="translate(1854,520)" d="m0 0 7 1 3 4 3 13 1 16-3 12-4 6-6 4-3 1h-10l-8-4-5-6-1-3v-12l3-6 12-14 9-11z" fill="#0BB7AA"/>
<path transform="translate(1898,487)" d="m0 0 8 1 12 4 13 7 7 7 3 6v12l-5 8-5 4-10 2-9-3-6-5-6-14-7-20 1-6z" fill="#0BB7AA"/>
<path transform="translate(1847,369)" d="m0 0h12l8 5 4 5 1 3v12l-5 8-12 14-7 8-3 2-6-1-3-5-3-12-1-8v-9l2-9 5-8z" fill="#0BB7AA"/>
<path transform="translate(669,507)" d="m0 0h17v41l-30 6-6-3-2-4v-32l3-5 4-2z" fill="#7C014F"/>
<path transform="translate(1782,462)" d="m0 0h7l11 6 14 9v6l-12 6-7 2h-13l-7-4-4-6v-8l3-6 5-4z" fill="#ED1B78"/>
<path transform="translate(1875,499)" d="m0 0 6 2 10 8 6 8 3 7-1 9-6 7-3 1h-9l-5-3-4-5-1-2v-18l1-12z" fill="#ED1B78"/>
<path transform="translate(1875,401)" d="m0 0h9l6 4 3 5v11l-6 7-21 11h-5l-2-3 1-13 4-12 7-8z" fill="#ED1B79"/>
<path transform="translate(1834,507)" d="m0 0h5l2 2-1 14-4 11-4 6-5 4-3 1h-7l-7-4-3-5-1-7 3-7 6-5z" fill="#ED1B78"/>
<path transform="translate(1904,455)" d="m0 0h14l6 3 4 5 1 2v8l-5 8-7 3-8-1-20-12-4-5 3-5 12-5z" fill="#ED1B78"/>
<path transform="translate(1809,405)" d="m0 0h11l6 4 3 6v18l-1 11-2 2-7-1-11-9-6-9-2-5 1-9 3-5z" fill="#ED1B78"/>
<path transform="translate(1601,161)" d="m0 0h18l2 4v21l-2 4h-16l-3-2v-26z" fill="#800152"/>
<path transform="translate(574,161)" d="m0 0h17l2 1v26l-1 2h-17l-2-2v-26z" fill="#7C014F"/>
<path transform="translate(1848,459)" d="m0 0 7 1 6 4 2 4v10l-6 7-2 1h-10l-7-6-1-2v-10l4-6z" fill="#ED1B78"/>
<path transform="translate(815,225)" d="m0 0h14v23l-12 3h-8l-2-3v-19l3-3z" fill="#7D0150"/>
<path transform="translate(1161,225)" d="m0 0h13v23l-12 3h-7l-3-5v-15l3-5z" fill="#7F0152"/>
<path transform="translate(1874,441)" d="m0 0h6l6 4 2 4-1 8-5 4-13-1-9-2-2-4 7-8 6-4z" fill="#FEC03F"/>
<path transform="translate(1816,449)" d="m0 0 6 1 4 4 6 17-1 4-9-1-9-4-5-5-1-6 3-7z" fill="#FEC03F"/>
<path transform="translate(1842,428)" d="m0 0 9 1 4 5v7l-7 9-6 7-5-1-3-12v-7l3-6z" fill="#FEC03F"/>
<path transform="translate(1869,471)" d="m0 0 10 1 10 5 3 4 1 6-3 7-3 2h-8l-5-4-6-17z" fill="#FEC03F"/>
<path transform="translate(1858,489)" d="m0 0 5 1 3 12-1 9-4 5-5 2-6-1-5-5v-8l12-14z" fill="#FEC03F"/>
<path transform="translate(1818,485)" d="m0 0h9l13 3 2 4-10 10-7 3-7-1-5-5-1-2v-6l4-5z" fill="#FEC03F"/>
</svg>
