<svg xmlns="http://www.w3.org/2000/svg" width="56" height="56" viewBox="0 0 56 56" fill="none">
										<path d="M36.6104 28.2718V36.2927M39.9505 28.2718V36.2927M48.0787 20.3875C48.0612 22.4817 48.1114 24.5793 48.0519 26.6723C47.864 27.7317 46.7102 27.734 45.8679 27.6897H13.3762C12.2095 27.7095 12.0054 26.4612 12.1022 25.5582C12.1185 23.7498 12.0684 21.9368 12.1279 20.1297C12.3157 19.0703 13.4695 19.068 14.3119 19.1123H46.8035C47.1414 19.1133 47.465 19.2479 47.7038 19.4869C47.9425 19.7259 48.0781 20.0497 48.0787 20.3875Z" stroke="#E7282A" stroke-linecap="round" stroke-linejoin="round"></path>
										<path d="M46.1078 28.9917C46.0915 31.0858 46.1428 33.1835 46.0822 35.2765C45.8943 36.3347 44.7405 36.337 43.8982 36.2927H11.4065C10.2398 36.3137 10.0357 35.0653 10.1325 34.1612C10.1488 32.3528 10.0987 30.5398 10.1582 28.7338C10.346 27.6745 11.4998 27.6722 12.3422 27.7165H44.8338C45.1714 27.7174 45.4949 27.8519 45.7337 28.0907C45.9724 28.3294 46.1069 28.6541 46.1078 28.9917Z" stroke="#E7282A" stroke-linecap="round" stroke-linejoin="round"></path>
										<path d="M42.0813 37.695C42.0592 39.3925 42.1047 41.0935 42.0393 42.7887C41.855 43.8235 40.7315 43.8503 39.902 43.799L9.20818 43.7045C8.06601 43.7232 7.83735 42.5063 7.94001 41.6138C7.96101 40.187 7.91668 38.7555 7.97968 37.3322C8.16401 36.2973 9.28751 36.2705 10.117 36.3218L40.8108 36.4163C41.1486 36.4182 41.472 36.5538 41.7101 36.7934C41.9482 37.033 42.0817 37.3572 42.0813 37.695Z" stroke="#E7282A" stroke-linecap="round" stroke-linejoin="round"></path>
										<path d="M25.1279 27.7165V36.2927M17.891 27.7165V36.2927M18.9235 19.1135V27.6897M22.9439 19.1135V27.6897M21.4342 47.2815H34.299M43.2345 45.1022C43.2182 46.641 43.2672 48.1822 43.2089 49.7198C43.0385 50.715 41.9652 50.7932 41.1555 50.736H13.7774C12.6784 50.7628 12.3995 49.6008 12.5022 48.7258C12.5185 47.432 12.4695 46.1358 12.5279 44.8443C12.6982 43.8492 13.7715 43.771 14.58 43.827H41.9617C42.2995 43.8279 42.6232 43.9626 42.862 44.2016C43.1007 44.4406 43.2339 44.7644 43.2345 45.1022ZM40.8685 13.4657C40.851 15.0045 40.9012 16.5457 40.8417 18.0833C40.6702 19.0785 39.598 19.1567 38.7884 19.0995L11.4102 19.096C10.31 19.1217 10.0324 17.9608 10.135 17.0847C10.1514 15.7908 10.1024 14.4947 10.1619 13.2032C10.3322 12.208 11.4055 12.1298 12.214 12.187L39.5945 12.1905C39.9323 12.1914 40.256 12.3261 40.4948 12.5651C40.7335 12.8041 40.8679 13.1279 40.8685 13.4657Z" stroke="#E7282A" stroke-linecap="round" stroke-linejoin="round"></path>
										<path d="M19.0679 15.6427L31.9327 15.6438M43.5749 6.52167C43.5609 8.0605 43.6099 9.60283 43.5516 11.1393C43.3952 12.0808 42.3896 12.2278 41.6091 12.1578C33.0364 12.1578 24.4626 12.1777 15.8911 12.1683C14.9169 12.1018 14.6509 11.074 14.7454 10.2678C14.7606 8.94017 14.7104 7.60783 14.7687 6.2825C14.9262 5.34217 15.9331 5.19517 16.7136 5.26517C25.2862 5.264 33.8589 5.24533 42.4304 5.2535C42.7443 5.28606 43.035 5.43364 43.2465 5.6678C43.4581 5.90195 43.5755 6.20611 43.5761 6.52167H43.5749Z" stroke="#E7282A" stroke-linecap="round" stroke-linejoin="round"></path>
									</svg>