<svg width="39" height="39" viewBox="0 0 39 39" fill="none" xmlns="http://www.w3.org/2000/svg">
<path d="M34.8122 15.4166C34.8122 15.1459 34.7046 14.8862 34.5132 14.6948C34.3217 14.5033 34.0621 14.3958 33.7913 14.3958C33.5206 14.3958 33.2609 14.5033 33.0695 14.6948C32.878 14.8862 32.7705 15.1459 32.7705 15.4166H34.8122ZM6.22883 15.4166C6.22883 15.1459 6.12128 14.8862 5.92983 14.6948C5.73839 14.5033 5.47874 14.3958 5.20799 14.3958C4.93725 14.3958 4.6776 14.5033 4.48616 14.6948C4.29471 14.8862 4.18716 15.1459 4.18716 15.4166H6.22883ZM37.1519 20.2227C37.3436 20.4144 37.6036 20.5221 37.8747 20.5221C38.1457 20.5221 38.4057 20.4144 38.5974 20.2227C38.7891 20.031 38.8968 19.771 38.8968 19.5C38.8968 19.2289 38.7891 18.9689 38.5974 18.7772L37.1519 20.2227ZM19.4997 1.12495L20.2224 0.402203C20.1276 0.307136 20.0149 0.231712 19.8909 0.180248C19.7669 0.128785 19.6339 0.102295 19.4997 0.102295C19.3654 0.102295 19.2324 0.128785 19.1084 0.180248C18.9844 0.231712 18.8717 0.307136 18.7769 0.402203L19.4997 1.12495ZM0.401912 18.7772C0.210226 18.9689 0.102539 19.2289 0.102539 19.5C0.102539 19.771 0.210226 20.031 0.401912 20.2227C0.593597 20.4144 0.853578 20.5221 1.12466 20.5221C1.39575 20.5221 1.65573 20.4144 1.84741 20.2227L0.401912 18.7772ZM9.29133 38.8958H29.708V36.8541H9.29133V38.8958ZM34.8122 33.7916V15.4166H32.7705V33.7916H34.8122ZM6.22883 33.7916V15.4166H4.18716V33.7916H6.22883ZM38.5974 18.7772L20.2224 0.402203L18.7769 1.8477L37.1519 20.2227L38.5974 18.7772ZM18.7769 0.402203L0.401912 18.7772L1.84741 20.2227L20.2224 1.8477L18.7769 0.402203ZM29.708 38.8958C31.0617 38.8958 32.36 38.358 33.3172 37.4008C34.2744 36.4436 34.8122 35.1453 34.8122 33.7916H32.7705C32.7705 34.6038 32.4478 35.3828 31.8735 35.9571C31.2992 36.5315 30.5202 36.8541 29.708 36.8541V38.8958ZM9.29133 36.8541C8.4791 36.8541 7.70014 36.5315 7.12581 35.9571C6.55148 35.3828 6.22883 34.6038 6.22883 33.7916H4.18716C4.18716 35.1453 4.72492 36.4436 5.68214 37.4008C6.63935 38.358 7.93762 38.8958 9.29133 38.8958V36.8541Z" fill="#FF0000"/>
</svg>
