<svg width="133" height="45" viewBox="0 0 133 45" fill="none" xmlns="http://www.w3.org/2000/svg">
    <g clip-path="url(#clip0_647_87)">
        <path
            d="M132.334 35.4267L131.543 20.8171C131.483 19.5349 130.885 18.4069 129.854 17.6363C128.949 16.9644 127.832 16.6069 126.635 16.6069H126.249C124.986 13.987 122.459 12.2486 119.633 12.2486C116.806 12.2486 114.279 13.9932 113.016 16.6069H112.703C111.859 16.6069 111.048 16.7795 110.316 17.1062L110.236 15.3432V15.2754C110.203 14.8808 110.11 14.511 109.95 14.1719C110.11 13.7712 110.183 13.3397 110.156 12.8897L109.904 8.11851C109.784 6.08426 108.181 4.66645 106 4.66645H101.811C101.678 4.08083 101.352 3.5507 100.86 3.13152C100.275 2.64453 99.5165 2.3733 98.7251 2.3733H96.6969C95.6728 2.3733 94.7152 2.83563 94.1433 3.60618C93.7908 4.07467 93.598 4.61714 93.5647 5.18426H93.0859C91.9687 5.18426 91.0045 5.44933 90.2264 5.97946C89.7343 6.31851 89.342 6.75001 89.0693 7.26166C88.923 6.46029 88.4775 5.76988 87.7792 5.28905C87.1741 4.87604 86.4359 4.66029 85.6379 4.66029H81.6612C80.8433 4.66029 80.1849 4.8144 79.6529 5.04248C79.1076 4.78974 78.5091 4.66029 77.8774 4.66029H74.7785C74.7984 3.87741 74.4726 3.11919 73.8475 2.53974L72.3845 1.23905C71.6929 0.616451 70.7619 0.326725 69.8109 0.443848C68.9132 0.554807 68.3346 0.943163 68.0021 1.25138L67.776 1.46714L65.7544 4.51234L65.7079 4.58015C65.668 4.64179 65.6347 4.70344 65.6015 4.77125C64.8833 4.61714 64.1119 4.64179 63.3272 4.85138L62.875 4.96851C62.4427 4.77125 61.9573 4.66029 61.4253 4.66029H58.6256C58.1402 4.66029 57.6614 4.76508 57.2291 4.95618C56.7437 4.76508 56.2183 4.66029 55.673 4.66029H50.772C50.1801 4.66029 49.6282 4.77125 49.1294 4.98083C48.6506 4.77125 48.112 4.66029 47.5467 4.66029H43.57C42.8186 4.66029 42.2001 4.78974 41.6947 4.987C41.1893 4.77741 40.6174 4.66029 39.999 4.66029H35.3639C35.2708 4.66029 35.1777 4.66029 35.0846 4.66645C34.7787 3.31645 33.5684 2.36714 32.019 2.36714H29.5851C27.9691 2.36714 26.6657 3.43974 26.4596 4.89453C26.0739 4.74042 25.6416 4.65412 25.1828 4.65412H22.4629C21.7048 4.65412 21.0132 4.89453 20.4679 5.29522C19.7963 4.88837 18.9983 4.65412 18.1404 4.65412H7.79968C5.59853 4.65412 3.77643 6.18289 3.56363 8.21714L0.790582 34.7055C0.677532 35.8089 1.06988 36.9185 1.87453 37.7384C2.67918 38.5582 3.82963 39.0329 5.02663 39.0329H8.82378C10.8454 39.0329 12.5411 37.7445 12.9734 35.963C13.4056 37.7445 15.1014 39.0329 17.123 39.0329H20.9201C21.8711 39.0329 22.7954 38.7308 23.5336 38.1945C23.6001 38.2315 23.6599 38.2747 23.7264 38.3117C23.7264 38.3671 23.7264 38.4288 23.7264 38.4843V40.7959C23.7264 41.4863 23.9525 42.1521 24.3715 42.7192C24.9966 43.5576 26.0007 44.0384 27.1246 44.0384H32.4113C33.9674 44.0384 35.2908 43.4528 36.1486 42.3863C36.7737 41.6034 37.1395 40.7219 37.2392 39.7541C37.9508 39.9637 38.7355 40.0685 39.5867 40.0685H40.5642C41.4021 40.0685 42.1137 40.0192 42.7388 39.9267C43.3639 39.8281 43.9424 39.6925 44.4545 39.5199C45.0995 39.8836 45.851 40.0685 46.6623 40.0685H49.0563C49.9341 40.0685 50.619 39.8836 51.1577 39.6185C51.7429 39.8836 52.4677 40.0685 53.3655 40.0685H63.8126C64.7702 40.0685 65.4884 39.8096 66.0005 39.4952C66.1667 39.5692 66.3396 39.637 66.5192 39.6925C67.2972 39.9452 68.1351 40.0685 69.0063 40.0685H69.9838C71.2473 40.0685 72.3778 39.9082 73.362 39.5939C73.8807 39.8959 74.5125 40.0685 75.2041 40.0685H78.7751C79.4268 40.0685 79.9522 39.9329 80.3711 39.7418C80.8965 39.9391 81.5282 40.0685 82.2797 40.0685H92.7268C93.1192 40.0685 93.465 40.0254 93.7775 39.9514C94.0834 40.0254 94.4093 40.0685 94.7484 40.0685H100.408C101.026 40.0685 101.605 39.9329 102.123 39.6678C102.556 39.8959 103.127 40.0685 103.846 40.0685H108.527C109.132 40.0685 109.691 39.9391 110.17 39.711C110.655 39.8466 111.227 39.9329 111.885 39.9329H127.56C128.757 39.9329 129.86 39.5692 130.758 38.8788C131.822 38.0589 132.381 36.8322 132.334 35.4206V35.4267Z"
            fill="#EA0397" />
        <path
            d="M22.0454 17.7349C21.7994 17.7349 21.6797 17.6239 21.6797 17.3958L22.1053 7.56982C22.1186 7.35406 22.2383 7.24927 22.471 7.24927H25.1909C25.4236 7.24927 25.5367 7.37256 25.5367 7.62529V7.98283L27.1792 7.7116C27.3322 7.68694 27.4585 7.69927 27.5583 7.74858C27.658 7.7979 27.7046 7.8842 27.7046 8.01982L27.7245 10.4917C27.7245 10.6458 27.6514 10.7383 27.5117 10.763L26.0221 11.0342C25.7761 11.0712 25.6564 11.1821 25.6564 11.3732V17.4575C25.6564 17.6486 25.5433 17.741 25.3106 17.741H22.0454V17.7349Z"
            fill="white" />
        <path
            d="M29.9794 17.7349C29.5139 17.7349 29.1548 17.5993 28.8888 17.3342C28.6228 17.063 28.4964 16.7794 28.5097 16.465L28.7824 9.98625H28.3169C28.2238 9.98625 28.1506 9.95543 28.0841 9.88762C28.0176 9.81982 27.9844 9.73968 27.9844 9.64721V7.6068C27.9844 7.36639 28.1041 7.24927 28.3501 7.24927H29.1016L29.2146 5.28283C29.2279 5.06707 29.3476 4.96228 29.5804 4.96228H32.0143C32.247 4.96228 32.3601 5.08557 32.3601 5.33831V7.25543H33.0583C33.1581 7.25543 33.2445 7.28625 33.311 7.35406C33.3775 7.42187 33.4108 7.50201 33.4108 7.59447V9.53009C33.4108 9.72118 33.2977 9.82598 33.065 9.85064L32.3667 9.88762V15.152L33.045 15.2075C33.2911 15.2321 33.4108 15.3431 33.4108 15.5465V17.4267C33.4108 17.6424 33.3044 17.7472 33.1049 17.7472H29.9794V17.7349Z"
            fill="white" />
        <path
            d="M34.9997 17.7349C34.6273 17.7349 34.3414 17.6301 34.1419 17.4143C33.9424 17.1986 33.8493 16.9458 33.8626 16.6438L34.2084 8.2479C34.235 7.89036 34.3414 7.63146 34.5276 7.47735C34.7138 7.32324 34.9931 7.2431 35.3655 7.2431H40.0005C40.7054 7.2431 41.0845 7.57598 41.1177 8.2479L41.3704 13.0253C41.3837 13.1917 41.3305 13.3212 41.2042 13.4198C41.0845 13.5184 40.9182 13.5616 40.7121 13.5616H37.9124C37.693 13.5739 37.5733 13.691 37.5467 13.9191V14.0979C37.5467 14.4184 37.6531 14.6527 37.8659 14.7945C38.0787 14.9363 38.3646 14.9979 38.7237 14.9732L40.8451 14.8808C41.0246 14.8684 41.1643 14.9116 41.2707 15.0164C41.3704 15.115 41.4303 15.2568 41.4436 15.4356L41.5234 17.1739C41.5367 17.5438 41.3438 17.7287 40.9448 17.7287H34.9997V17.7349ZM38.8966 10.3253C38.8966 10.0972 38.7902 9.98625 38.5907 9.98625H37.8592C37.6531 9.9616 37.5533 10.0602 37.5533 10.2698V11.4349C37.5533 11.626 37.6797 11.7308 37.939 11.7554H38.5575C38.6572 11.7678 38.7437 11.7431 38.8102 11.6753C38.8767 11.6075 38.9099 11.5273 38.9099 11.4349V10.3253H38.8966Z"
            fill="white" />
        <path
            d="M42.1609 17.7349C42.0212 17.7349 41.9015 17.6979 41.8151 17.6301C41.722 17.5561 41.6887 17.4575 41.702 17.328L41.7818 15.5897C41.7951 15.3369 41.9148 15.2137 42.1476 15.2137L44.6413 15.3061C44.914 15.3184 45.1135 15.2506 45.2465 15.1089C45.3795 14.9671 45.446 14.7945 45.446 14.591C45.446 14.3137 45.3795 14.1287 45.2465 14.0178C45.1135 13.913 44.8741 13.8575 44.5416 13.8575H43.8832C43.5241 13.8575 43.2049 13.8143 42.9389 13.7219C42.6663 13.6294 42.4402 13.4815 42.2606 13.2719C42.0811 13.0623 41.9481 12.7849 41.855 12.4335C41.7619 12.0821 41.7353 11.6445 41.7552 11.1205L41.855 8.75954C41.8816 8.35269 42.0279 8.00132 42.3005 7.70543C42.5732 7.40954 42.9988 7.25543 43.5773 7.25543H47.554C47.7602 7.25543 47.9264 7.29858 48.0461 7.37872C48.1658 7.46502 48.239 7.59447 48.2456 7.77324L48.3055 9.02461C48.3321 9.43146 48.2456 9.69653 48.0461 9.81982C47.8466 9.9431 47.5806 10.0047 47.2481 10.0047H46.6097C46.2373 10.0047 45.9514 10.0541 45.7519 10.1589C45.5524 10.2575 45.4526 10.4547 45.4526 10.7383C45.4526 11.0219 45.5524 11.2315 45.7452 11.3547C45.9381 11.478 46.2307 11.5397 46.6164 11.5397C47.2747 11.5397 47.7469 11.6445 48.0328 11.8541C48.3254 12.0637 48.4784 12.4458 48.505 13.0068L48.638 16.0828C48.6513 16.3109 48.6247 16.5205 48.5515 16.7178C48.4784 16.915 48.3587 17.0876 48.1924 17.2356C48.0262 17.3835 47.7934 17.5068 47.5075 17.5931C47.2149 17.6856 46.8624 17.7287 46.4368 17.7287H42.1675L42.1609 17.7349Z"
            fill="white" />
        <path
            d="M55.0552 17.7349C54.8491 17.7349 54.6828 17.6856 54.5565 17.5931C54.4301 17.5006 54.3636 17.3034 54.3636 17.0013C54.1841 17.1 54.0045 17.1863 53.8316 17.2726C53.6587 17.3589 53.4659 17.4328 53.2597 17.5068C53.0536 17.5808 52.8142 17.6363 52.5482 17.6794C52.2755 17.7226 51.9497 17.741 51.564 17.741H51.0054C50.347 17.741 49.8283 17.5808 49.4493 17.2664C49.0702 16.952 48.8707 16.5205 48.8574 15.9719V15.7746L49.0104 13.6972C49.037 13.3274 49.1833 13.0253 49.4426 12.7849C49.7086 12.5445 50.0012 12.415 50.3204 12.3904L53.16 12.2671C53.4193 12.2547 53.6255 12.1808 53.7784 12.0452C53.9314 11.9095 54.0112 11.7246 54.0112 11.4965V10.2945C54.0112 10.1527 53.9447 10.0417 53.8117 9.97393C53.6787 9.89995 53.5191 9.86913 53.3395 9.86913C53.1733 9.86913 53.0203 9.89995 52.874 9.96776C52.7344 10.0356 52.6612 10.1342 52.6612 10.2637V10.8C52.6612 11.1452 52.4817 11.3301 52.1226 11.3547H50.214C50.0079 11.3547 49.8416 11.3054 49.7219 11.2006C49.6022 11.102 49.5424 10.9726 49.5557 10.8184L49.6687 8.22324C49.682 7.98283 49.7818 7.76708 49.968 7.56365C50.1542 7.36023 50.4202 7.2616 50.766 7.2616H55.667C55.9729 7.2616 56.2456 7.36023 56.4783 7.55749C56.7111 7.75475 56.8308 7.98899 56.8441 8.26639L57.2697 16.8595C57.283 17.1123 57.2231 17.3219 57.0968 17.4945C56.9704 17.6671 56.7443 17.7534 56.4185 17.7534H55.0486L55.0552 17.7349ZM54.0112 13.7958L52.9472 13.8513C52.7144 13.876 52.6014 13.9931 52.6014 14.2089V15.0657C52.6014 15.1705 52.6413 15.2568 52.7144 15.3246C52.7942 15.3924 52.8807 15.4109 52.9871 15.3863L54.0112 15.189V13.7958Z"
            fill="white" />
        <path
            d="M63.4351 17.7349C63.3287 17.7349 63.2489 17.6979 63.1824 17.6301C63.1159 17.5561 63.0826 17.4698 63.0826 17.3589L63.1624 10.4671C63.1624 10.2883 63.1092 10.1527 63.0095 10.0664C62.9031 9.97393 62.7634 9.94927 62.5839 9.98625L61.8125 10.1465V17.4452C61.8125 17.5315 61.7792 17.5993 61.7127 17.6486C61.6462 17.7041 61.5664 17.7287 61.46 17.7287H58.1949C57.9355 17.7287 57.8158 17.6178 57.8291 17.3897L58.2547 7.56365C58.2547 7.45886 58.288 7.37872 58.3611 7.32324C58.4343 7.26776 58.5207 7.2431 58.6205 7.2431H61.4201C61.6662 7.2431 61.7859 7.36639 61.7859 7.61913V7.93968L64.0801 7.3294C64.6188 7.18762 65.071 7.23694 65.4234 7.48351C65.7759 7.73009 65.9687 8.07529 65.9953 8.53146L66.4409 17.4452C66.4542 17.6363 66.3411 17.7287 66.115 17.7287H63.4284L63.4351 17.7349Z"
            fill="white" />
        <path
            d="M67.2993 17.7349C67.173 17.7349 67.0799 17.6979 67.02 17.6301C66.9602 17.5623 66.9336 17.4822 66.9336 17.3959L67.3592 7.56984C67.3725 7.44039 67.419 7.35409 67.5055 7.31094C67.5919 7.26779 67.6651 7.24929 67.7249 7.24929H70.4647C70.5778 7.24929 70.6709 7.28628 70.7241 7.36642C70.7839 7.44655 70.8105 7.53285 70.8105 7.62532V17.4513C70.8105 17.513 70.7773 17.5746 70.7108 17.6363C70.6443 17.7041 70.5645 17.7349 70.4581 17.7349H67.2927H67.2993ZM70.4049 6.08422C70.2652 6.18902 70.1522 6.26299 70.079 6.29998C70.0059 6.33696 69.9327 6.35546 69.8662 6.35546H68.4365C68.2835 6.35546 68.1771 6.29381 68.1306 6.17669C68.0774 6.05957 68.0774 5.95477 68.1306 5.87463L69.9859 3.08217C70.0258 3.04518 70.0923 3.02052 70.1854 3.0082C70.2852 2.99587 70.3716 3.02669 70.4448 3.10066L71.8745 4.37053C71.9676 4.45683 72.0009 4.54313 71.9876 4.62943C71.9743 4.72189 71.9344 4.79587 71.8745 4.85135L70.4049 6.08422Z"
            fill="white" />
        <path
            d="M77.2603 17.7349C77.0541 17.7349 76.8879 17.6856 76.7615 17.5931C76.6352 17.5006 76.5687 17.3034 76.5687 17.0013C76.3891 17.1 76.2096 17.1863 76.0367 17.2726C75.8638 17.3589 75.671 17.4328 75.4648 17.5068C75.2587 17.5808 75.0193 17.6363 74.7533 17.6794C74.4806 17.7226 74.1547 17.741 73.769 17.741H73.2104C72.5521 17.741 72.0334 17.5808 71.6543 17.2664C71.2753 16.952 71.0758 16.5205 71.0625 15.9719V15.7746L71.2154 13.6972C71.242 13.3274 71.3883 13.0253 71.6477 12.7849C71.9137 12.5445 72.2063 12.415 72.5255 12.3904L75.3651 12.2671C75.6244 12.2547 75.8306 12.1808 75.9835 12.0452C76.1365 11.9095 76.2162 11.7246 76.2162 11.4965V10.2945C76.2162 10.1527 76.1497 10.0417 76.0167 9.97393C75.8837 9.90612 75.7241 9.86913 75.5446 9.86913C75.3783 9.86913 75.2254 9.89995 75.0791 9.96776C74.9395 10.0356 74.8663 10.1342 74.8663 10.2637V10.8C74.8663 11.1452 74.6867 11.3301 74.3276 11.3547H72.4191C72.213 11.3547 72.0467 11.3054 71.927 11.2006C71.8073 11.102 71.7475 10.9726 71.7608 10.8184L71.8738 8.22324C71.8871 7.98283 71.9868 7.76708 72.173 7.56365C72.3592 7.36023 72.6253 7.2616 72.9711 7.2616H77.8721C78.178 7.2616 78.4506 7.36023 78.6834 7.55749C78.9161 7.75475 79.0359 7.98899 79.0492 8.26639L79.4748 16.8595C79.4881 17.1123 79.4282 17.3219 79.3018 17.4945C79.1755 17.6671 78.9494 17.7534 78.6236 17.7534H77.2536L77.2603 17.7349ZM76.2162 13.7958L75.1523 13.8513C74.9195 13.876 74.8064 13.9931 74.8064 14.2089V15.0657C74.8064 15.1705 74.8464 15.2568 74.9195 15.3246C74.9993 15.3924 75.0857 15.4109 75.1921 15.3863L76.2162 15.189V13.7958Z"
            fill="white" />
        <path
            d="M80.2527 17.7349C80.113 17.7349 79.9933 17.6979 79.9069 17.6301C79.8138 17.5561 79.7805 17.4575 79.7938 17.328L79.8736 15.5897C79.8869 15.3369 80.0066 15.2137 80.2394 15.2137L82.7331 15.3061C83.0058 15.3184 83.2053 15.2506 83.3383 15.1089C83.4713 14.9671 83.5378 14.7945 83.5378 14.591C83.5378 14.3137 83.4713 14.1287 83.3383 14.0178C83.2053 13.9068 82.9659 13.8575 82.6334 13.8575H81.975C81.6159 13.8575 81.2967 13.8143 81.0307 13.7219C80.7581 13.6294 80.532 13.4815 80.3524 13.2719C80.1729 13.0623 80.0399 12.7849 79.9468 12.4335C79.8537 12.0821 79.8271 11.6445 79.847 11.1205L79.9468 8.75954C79.9734 8.35269 80.1197 8.00132 80.3923 7.70543C80.665 7.40954 81.0906 7.25543 81.6691 7.25543H85.6458C85.852 7.25543 86.0182 7.29858 86.1379 7.37872C86.2576 7.46502 86.3308 7.59447 86.3441 7.77324L86.4039 9.02461C86.4305 9.43146 86.3441 9.69653 86.1446 9.81982C85.9451 9.9431 85.6791 10.0047 85.3466 10.0047H84.7082C84.3358 10.0047 84.0498 10.0541 83.8503 10.1589C83.6508 10.2575 83.5511 10.4547 83.5511 10.7383C83.5511 11.0219 83.6508 11.2315 83.8437 11.3547C84.0365 11.478 84.3291 11.5397 84.7148 11.5397C85.3732 11.5397 85.8453 11.6445 86.1313 11.8541C86.4239 12.0637 86.5768 12.4458 86.6034 13.0068L86.7364 16.0828C86.7497 16.3109 86.7231 16.5205 86.65 16.7178C86.5768 16.915 86.4571 17.0876 86.2909 17.2356C86.1246 17.3835 85.8919 17.5068 85.6059 17.5931C85.3133 17.6856 84.9609 17.7287 84.5353 17.7287H80.266L80.2527 17.7349Z"
            fill="white" />
        <path
            d="M92.3959 17.7349C92.0634 17.7349 91.7575 17.6239 91.4782 17.402C91.1989 17.1801 91.0726 16.8534 91.0992 16.428L91.4051 9.03694C91.4317 8.58077 91.5913 8.26023 91.8772 8.06296C92.1698 7.8657 92.5688 7.76707 93.0809 7.76707H96.346V5.33214C96.346 5.23968 96.3726 5.15338 96.4325 5.07324C96.4923 4.9931 96.5788 4.95612 96.6918 4.95612H98.7201C98.8198 4.95612 98.9129 4.98694 98.9794 5.04858C99.0526 5.11023 99.0858 5.1842 99.0858 5.28283L99.4715 17.3958C99.4715 17.6239 99.3518 17.7349 99.1058 17.7349H92.3893H92.3959ZM96.3926 10.1465L95.6411 10.0232C95.5015 9.99858 95.3685 10.0356 95.2421 10.1404C95.1224 10.239 95.0559 10.3993 95.0559 10.615V14.8191C95.0559 14.9979 95.1424 15.0904 95.3086 15.0904L96.1598 15.1273C96.3261 15.1273 96.4059 15.0349 96.3926 14.8438V10.1527V10.1465Z"
            fill="white" />
        <path
            d="M101.008 17.7349C100.635 17.7349 100.349 17.6301 100.15 17.4143C99.9502 17.1986 99.8571 16.9458 99.8704 16.6438L100.216 8.2479C100.243 7.89036 100.349 7.63146 100.535 7.47735C100.722 7.32324 101.001 7.2431 101.373 7.2431H106.008C106.713 7.2431 107.092 7.57598 107.126 8.2479L107.378 13.0253C107.392 13.1917 107.338 13.3212 107.212 13.4198C107.092 13.5184 106.926 13.5616 106.72 13.5616H103.92C103.701 13.5739 103.581 13.691 103.554 13.9191V14.0979C103.554 14.4184 103.661 14.6527 103.874 14.7945C104.086 14.9363 104.372 14.9979 104.732 14.9732L106.853 14.8808C107.032 14.8684 107.172 14.9116 107.278 15.0164C107.378 15.115 107.438 15.2568 107.451 15.4356L107.531 17.1739C107.544 17.5438 107.352 17.7287 106.953 17.7287H101.008V17.7349ZM104.904 10.3253C104.904 10.0972 104.798 9.98625 104.599 9.98625H103.867C103.661 9.9616 103.561 10.0602 103.561 10.2698V11.4349C103.561 11.626 103.687 11.7308 103.947 11.7554H104.565C104.665 11.7678 104.751 11.7431 104.818 11.6753C104.884 11.6075 104.918 11.5273 104.918 11.4349V10.3253H104.904Z"
            fill="white" />
        <path
            d="M128.758 20.9342C128.738 20.3856 128.518 19.9541 128.106 19.6459C127.694 19.3376 127.202 19.1835 126.636 19.1835H124.203C123.744 16.6931 121.875 14.8192 119.641 14.8192C117.406 14.8192 115.538 16.6931 115.079 19.1835H112.711C112.139 19.1835 111.634 19.3253 111.188 19.615C110.743 19.8986 110.51 20.3178 110.484 20.8664L109.732 35.3835C109.712 35.9322 109.872 36.4007 110.211 36.7828C110.55 37.165 111.115 37.3561 111.887 37.3561H127.561C128.106 37.3561 128.585 37.202 128.984 36.8938C129.383 36.5856 129.569 36.1294 129.549 35.513L128.764 20.9342H128.758ZM119.634 15.7253C121.35 15.7253 122.793 17.1986 123.212 19.1897H116.056C116.475 17.1986 117.918 15.7253 119.634 15.7253Z"
            fill="#FFDA00" />
        <path
            d="M27.1246 41.4495C26.9251 41.4495 26.7721 41.3817 26.6724 41.2461C26.5726 41.1105 26.5194 40.9625 26.5194 40.7961V38.4845C26.5194 37.942 26.8253 37.6708 27.4305 37.6708H30.2301V36.481H26.5593C26.1337 36.481 25.7081 36.3701 25.2958 36.1543C24.8769 35.9386 24.5045 35.6365 24.1653 35.2667C23.8262 34.8906 23.5402 34.4591 23.3075 33.9721C23.0747 33.4851 22.9284 32.9673 22.8885 32.4249L21.7115 19.7139C21.6915 19.5475 21.7381 19.418 21.8644 19.3256C21.9908 19.2331 22.1371 19.1838 22.3166 19.1838H27.6765C27.9026 19.1838 28.0556 19.2331 28.1287 19.3379C28.2085 19.4427 28.2551 19.6091 28.2817 19.8372L28.9533 31.2043C28.9999 31.9132 29.2459 32.2584 29.6915 32.2338L30.2634 32.1721L30.7688 19.6769C30.7688 19.3441 30.9683 19.1776 31.3739 19.1776H35.5834C36.009 19.1776 36.2218 19.3749 36.2218 19.7694L34.4728 39.4769C34.4263 39.9762 34.2401 40.4324 33.9142 40.8331C33.5884 41.2399 33.0896 41.4434 32.418 41.4434H27.1312L27.1246 41.4495Z"
            fill="#FFDA00" />
        <path
            d="M46.6684 37.4856C46.3093 37.4856 46.0167 37.4055 45.7906 37.2329C45.5645 37.0664 45.4514 36.7212 45.4514 36.2034C45.1389 36.3698 44.8263 36.5239 44.5271 36.6719C44.2212 36.8198 43.8953 36.9555 43.5362 37.0787C43.1771 37.202 42.7582 37.3007 42.2927 37.3746C41.8205 37.4486 41.2486 37.4856 40.577 37.4856H39.5994C38.4556 37.4856 37.5512 37.2082 36.8862 36.6596C36.2212 36.1109 35.8821 35.3527 35.8555 34.3972V34.052L36.1281 30.4274C36.1747 29.7801 36.4274 29.25 36.8862 28.837C37.3451 28.4178 37.8571 28.1897 38.4157 28.1527L43.37 27.937C43.8222 27.9185 44.1813 27.789 44.4473 27.5486C44.7199 27.3082 44.8529 26.9938 44.8529 26.5931V24.5034C44.8529 24.2507 44.7332 24.0657 44.5005 23.9424C44.2677 23.8192 43.9884 23.7575 43.6759 23.7575C43.3833 23.7575 43.1173 23.813 42.8646 23.9301C42.6185 24.0472 42.4922 24.2137 42.4922 24.4479V25.3849C42.4922 25.989 42.1796 26.3096 41.5479 26.3527H38.2096C37.8505 26.3527 37.5645 26.2664 37.3517 26.0876C37.1389 25.9089 37.0458 25.687 37.0658 25.4157L37.2653 20.8849C37.2852 20.4657 37.4648 20.0835 37.7906 19.7322C38.1165 19.3808 38.582 19.202 39.1871 19.202H47.7457C48.2843 19.202 48.7565 19.3746 49.1621 19.7198C49.5678 20.065 49.7806 20.4781 49.8005 20.9527L50.5387 35.9445C50.5586 36.3822 50.4589 36.752 50.2328 37.0541C50.0067 37.3561 49.6143 37.5041 49.0557 37.5041H46.6617L46.6684 37.4856ZM44.8463 30.6123L42.9909 30.7048C42.5853 30.7479 42.3858 30.9575 42.3858 31.3274V32.8253C42.3858 33.0102 42.4523 33.1644 42.5853 33.2753C42.7183 33.3924 42.8779 33.4294 43.0574 33.3863L44.8463 33.0411V30.6061V30.6123Z"
            fill="#FFDA00" />
        <path
            d="M53.372 37.4856C52.7203 37.4856 52.2215 37.3007 51.8691 36.937C51.5233 36.5733 51.357 36.1233 51.3836 35.5808L51.9888 20.9342C52.0087 20.3918 52.2082 19.9664 52.5806 19.652C52.953 19.3376 53.4252 19.1835 54.0104 19.1835H62.3694C62.9081 19.1835 63.3603 19.3376 63.7194 19.6335C64.0785 19.9356 64.278 20.3671 64.3245 20.9281L64.6304 26.4575C64.6504 27.0431 64.3511 27.3452 63.7194 27.3637L60.8532 27.5178C60.6271 27.5363 60.401 27.4746 60.1816 27.3328C59.9555 27.1849 59.8424 26.9383 59.8424 26.5808V24.6452C59.8424 24.226 59.6629 23.9979 59.3038 23.9609L58.5257 23.8993C58.2996 23.8808 58.14 23.9301 58.0403 24.0534C57.9405 24.1767 57.8873 24.3246 57.8873 24.4911V30.6431C57.8873 31.1856 58.0868 31.6356 58.4792 31.987C58.8715 32.3383 59.357 32.5048 59.9422 32.4863L63.6462 32.3322C63.9854 32.3137 64.2381 32.3938 64.4043 32.5849C64.5706 32.7698 64.6703 33.0102 64.6903 33.3061L64.8233 36.5239C64.8432 37.1712 64.5107 37.4918 63.8125 37.4918H53.3653L53.372 37.4856Z"
            fill="#FFDA00" />
        <path
            d="M75.2042 37.4856C74.7986 37.4856 74.5991 37.2698 74.5991 36.8322V36.2096C74.0804 36.4993 73.4553 36.789 72.7105 37.0664C71.9723 37.35 71.0613 37.4856 69.984 37.4856H69.0064C68.4478 37.4856 67.9225 37.4055 67.437 37.2513C66.9516 37.0972 66.5459 36.8322 66.2068 36.4685C65.8676 36.1048 65.6083 35.6178 65.4287 35.0137C65.2492 34.4096 65.1827 33.6698 65.2292 32.7945L65.8011 19.7075C65.8011 19.3561 66.0006 19.1774 66.4063 19.1774H71.0546C71.3007 19.1774 71.4669 19.2267 71.5401 19.3315C71.6199 19.4363 71.6598 19.6027 71.6598 19.8308V31.5739C71.6598 31.8883 71.7396 32.0918 71.8925 32.1965C72.0521 32.3013 72.1984 32.3507 72.3314 32.3507C72.4179 32.3507 72.491 32.3383 72.5309 32.3198L73.9474 31.7897V19.6705C74.0604 19.3376 74.2932 19.1712 74.6523 19.1712H77.8842C78.2898 19.1712 78.5026 19.3685 78.5226 19.763L79.4004 36.9123C79.4004 37.0787 79.3538 37.2144 79.2674 37.3192C79.1743 37.4239 79.008 37.4733 78.762 37.4733H75.1909L75.2042 37.4856Z"
            fill="#FFDA00" />
        <path
            d="M82.2802 37.4856C81.6285 37.4856 81.1297 37.3007 80.7773 36.937C80.4315 36.5733 80.2652 36.1233 80.2918 35.5808L80.897 20.9342C80.9169 20.3918 81.1164 19.9664 81.4888 19.652C81.8612 19.3376 82.3334 19.1835 82.9186 19.1835H91.2776C91.8163 19.1835 92.2685 19.3376 92.6276 19.6335C92.9867 19.9356 93.1862 20.3671 93.2327 20.9281L93.5386 26.4575C93.5586 27.0431 93.2593 27.3452 92.6276 27.3637L89.7614 27.5178C89.5353 27.5363 89.3092 27.4746 89.0898 27.3328C88.8637 27.1849 88.7506 26.9383 88.7506 26.5808V24.6452C88.7506 24.226 88.5711 23.9979 88.212 23.9609L87.4339 23.8993C87.2078 23.8808 87.0482 23.9301 86.9485 24.0534C86.8487 24.1767 86.7955 24.3246 86.7955 24.4911V30.6431C86.7955 31.1856 86.995 31.6356 87.3874 31.987C87.7797 32.3383 88.2652 32.5048 88.8504 32.4863L92.5544 32.3322C92.8936 32.3137 93.1463 32.3938 93.3125 32.5849C93.4788 32.7698 93.5785 33.0102 93.5985 33.3061L93.7315 36.5239C93.7514 37.1712 93.4189 37.4918 92.7207 37.4918H82.2735L82.2802 37.4856Z"
            fill="#FFDA00" />
        <path
            d="M103.845 37.4856C103.619 37.4856 103.466 37.4301 103.373 37.3253C103.28 37.2205 103.24 37.1034 103.24 36.9739L103.373 27.7767C103.373 27.4993 103.273 27.2897 103.067 27.1418C102.867 26.9938 102.628 26.9383 102.362 26.9692L101.012 27.1664V37.0972C101.012 37.1959 100.959 37.2822 100.846 37.3685C100.733 37.4486 100.586 37.4918 100.407 37.4918H94.7478C94.3222 37.4918 94.1094 37.3376 94.1094 37.0294L95.0204 19.6274C95.0204 19.3315 95.2332 19.1897 95.6588 19.1897H100.407C100.606 19.1897 100.759 19.2452 100.859 19.35C100.959 19.4548 101.012 19.5719 101.012 19.7013V23.8993L105.428 23.215C106.212 23.0856 106.891 23.1842 107.449 23.5233C108.008 23.8561 108.314 24.3308 108.36 24.9534L109.105 37.1034C109.105 37.3623 108.912 37.4918 108.533 37.4918H103.852L103.845 37.4856Z"
            fill="#FFDA00" />
        <path
            d="M15.6674 35.2047L15.162 30.076C15.1354 29.7801 14.8694 29.5582 14.5502 29.5582H11.4048C11.0856 29.5582 10.8196 29.7863 10.793 30.076L10.2876 35.2047C10.2211 35.9013 9.58935 36.4376 8.83125 36.4376H5.0341C4.1696 36.4376 3.4913 35.7472 3.57775 34.9458L6.34415 8.46982C6.4173 7.77324 7.04905 7.2431 7.8005 7.2431H18.1412C18.8927 7.2431 19.5244 7.77324 19.5976 8.46982L22.3706 34.952C22.4571 35.7472 21.7788 36.4438 20.9143 36.4438H17.1171C16.359 36.4438 15.7273 35.9075 15.6608 35.2109L15.6674 35.2047ZM12.9742 13.5C12.655 13.5 12.389 13.7219 12.3624 14.0178L11.4912 22.6726C11.458 23.0054 11.7439 23.2952 12.103 23.2952H13.852C14.2177 23.2952 14.5037 23.0054 14.4638 22.6726L13.5926 14.0178C13.566 13.7219 13.2934 13.5 12.9808 13.5H12.9742Z"
            fill="#FFDA00" />
        <path
            d="M124.409 24.3308C124.395 24.0411 124.282 23.8191 124.07 23.6589C123.857 23.4986 123.597 23.4185 123.298 23.4185H116.016C115.717 23.4185 115.451 23.4924 115.218 23.6404C114.986 23.7883 114.866 24.0102 114.853 24.2938L114.46 31.8883C114.447 32.178 114.533 32.4185 114.713 32.6157C114.893 32.813 115.185 32.9116 115.591 32.9116H123.79C124.076 32.9116 124.322 32.8315 124.535 32.6712C124.741 32.5109 124.841 32.2705 124.828 31.95L124.415 24.3246L124.409 24.3308Z"
            fill="#EA0397" />
        <path
            d="M119.707 30.0945C119.854 29.9343 120.133 29.9897 120.199 30.187C120.299 30.5076 120.379 30.8281 120.386 31.1671C120.386 31.3521 120.366 31.537 120.299 31.7158C120.213 31.9377 120.06 32.1165 119.8 32.2089C119.608 32.2767 119.395 32.2767 119.202 32.2089C118.949 32.1165 118.783 31.9439 118.71 31.6973C118.637 31.4507 118.71 31.198 118.883 31.0069C119.089 30.7726 119.308 30.5445 119.514 30.3103C119.568 30.2548 119.634 30.1747 119.707 30.0945Z"
            fill="#00EDFF" />
        <path
            d="M117.818 29.1637C118.037 29.2007 118.13 29.4534 117.977 29.6013C117.731 29.8418 117.465 30.0637 117.153 30.2363C116.98 30.3349 116.8 30.4089 116.601 30.4397C116.348 30.4828 116.109 30.4397 115.889 30.2856C115.73 30.1685 115.623 29.9897 115.59 29.8048C115.55 29.552 115.63 29.3363 115.823 29.1575C116.016 28.9787 116.288 28.9048 116.554 28.9479C116.88 28.9972 117.199 29.0527 117.525 29.1082C117.605 29.1205 117.711 29.139 117.824 29.1575L117.818 29.1637Z"
            fill="#00EDFF" />
        <path
            d="M117.745 27.1787C117.818 27.376 117.632 27.5733 117.413 27.524C117.06 27.45 116.721 27.3452 116.409 27.1849C116.236 27.0924 116.069 26.9877 115.943 26.8397C115.777 26.6609 115.69 26.4452 115.73 26.1924C115.757 26.0014 115.87 25.8287 116.036 25.7116C116.249 25.5514 116.495 25.5082 116.754 25.576C117.014 25.6438 117.22 25.8226 117.313 26.0568C117.426 26.3404 117.539 26.6301 117.646 26.9137C117.672 26.9815 117.712 27.0801 117.745 27.1787Z"
            fill="#00EDFF" />
        <path
            d="M119.567 26.1308C119.421 26.2911 119.141 26.2356 119.075 26.0384C118.975 25.7178 118.895 25.3973 118.889 25.0582C118.889 24.8733 118.909 24.6883 118.975 24.5096C119.062 24.2877 119.215 24.1089 119.474 24.0164C119.667 23.9486 119.88 23.9486 120.072 24.0164C120.325 24.1089 120.491 24.2815 120.564 24.5281C120.638 24.7747 120.564 25.0274 120.392 25.2185C120.185 25.4527 119.966 25.6808 119.76 25.9151C119.707 25.9705 119.64 26.0507 119.567 26.1308Z"
            fill="#00EDFF" />
        <path
            d="M121.456 27.0616C121.236 27.0246 121.143 26.7719 121.296 26.6239C121.542 26.3835 121.808 26.1616 122.121 25.989C122.294 25.8904 122.473 25.8164 122.673 25.7856C122.925 25.7424 123.165 25.7856 123.384 25.9397C123.544 26.0568 123.65 26.2356 123.683 26.4205C123.723 26.6733 123.644 26.889 123.451 27.0678C123.258 27.2465 122.985 27.3205 122.719 27.2774C122.393 27.2281 122.074 27.1726 121.748 27.1171C121.668 27.1048 121.562 27.0863 121.449 27.0678L121.456 27.0616Z"
            fill="#00EDFF" />
        <path
            d="M121.522 29.0466C121.449 28.8493 121.635 28.6521 121.855 28.7014C122.207 28.7754 122.546 28.8802 122.859 29.0404C123.032 29.1329 123.198 29.2377 123.324 29.3856C123.49 29.5644 123.577 29.7802 123.537 30.0329C123.51 30.224 123.397 30.3966 123.231 30.5137C123.018 30.674 122.772 30.7171 122.513 30.6493C122.254 30.5815 122.047 30.4028 121.954 30.1685C121.841 29.885 121.728 29.5952 121.622 29.3117C121.595 29.2439 121.555 29.1452 121.522 29.0466Z"
            fill="#00EDFF" />
        <path
            d="M119.433 29.6507C119.393 29.5274 119.406 29.398 119.506 29.2808C119.619 29.1514 119.819 28.9356 119.958 28.7877C120.025 28.7137 120.158 28.7322 120.184 28.8185C120.251 29.0096 120.337 29.2993 120.304 29.4843C120.291 29.5891 120.251 29.6877 120.165 29.7678C119.938 29.9774 119.566 29.9343 119.433 29.6507Z"
            fill="#FFC03F" />
        <path
            d="M118.097 28.7198C118.19 28.6212 118.316 28.5719 118.483 28.5966C118.655 28.6212 118.961 28.6767 119.168 28.7137C119.267 28.7322 119.32 28.8431 119.254 28.9109C119.108 29.0589 118.875 29.2746 118.695 29.3424C118.589 29.3794 118.476 29.3979 118.363 29.3671C118.057 29.287 117.904 28.9664 118.104 28.7198H118.097Z"
            fill="#FFC03F" />
        <path
            d="M118.296 27.1788C118.436 27.2035 118.549 27.2836 118.609 27.4254C118.668 27.5795 118.775 27.8446 118.841 28.0357C118.875 28.1281 118.795 28.2206 118.695 28.2021C118.482 28.1589 118.17 28.0788 118.01 27.9678C117.917 27.9 117.85 27.8199 117.817 27.7089C117.737 27.4192 117.957 27.1418 118.296 27.1788Z"
            fill="#FFC03F" />
        <path
            d="M119.839 26.5747C119.879 26.698 119.866 26.8274 119.766 26.9445C119.653 27.074 119.454 27.2897 119.314 27.4377C119.248 27.5116 119.115 27.4932 119.088 27.4069C119.021 27.2158 118.935 26.926 118.968 26.7411C118.982 26.6363 119.021 26.5377 119.108 26.4575C119.334 26.248 119.706 26.2911 119.839 26.5747Z"
            fill="#FFC03F" />
        <path
            d="M121.175 27.5055C121.082 27.6041 120.955 27.6534 120.789 27.6288C120.616 27.6041 120.31 27.5486 120.104 27.5116C120.005 27.4931 119.951 27.3822 120.018 27.3144C120.164 27.1664 120.397 26.9507 120.576 26.8829C120.683 26.8459 120.796 26.8274 120.909 26.8582C121.215 26.9383 121.368 27.2589 121.168 27.5055H121.175Z"
            fill="#FFC03F" />
        <path
            d="M120.969 29.0466C120.829 29.0219 120.716 28.9418 120.656 28.8C120.597 28.6459 120.49 28.3808 120.424 28.1898C120.39 28.0973 120.47 28.0048 120.57 28.0233C120.783 28.0665 121.095 28.1466 121.255 28.2576C121.348 28.3254 121.415 28.4055 121.448 28.5165C121.528 28.8062 121.308 29.0836 120.969 29.0466Z"
            fill="#FFC03F" />
        <path
            d="M119.634 28.6336C119.946 28.6336 120.199 28.399 120.199 28.1096C120.199 27.8202 119.946 27.5856 119.634 27.5856C119.321 27.5856 119.068 27.8202 119.068 28.1096C119.068 28.399 119.321 28.6336 119.634 28.6336Z"
            fill="white" />
        <path
            d="M118.96 29.4904C119.086 29.4287 119.239 29.5212 119.226 29.6507C119.212 29.8294 119.186 30.039 119.153 30.1685C119.106 30.3349 119.046 30.5013 118.947 30.6431C118.853 30.7726 118.74 30.8835 118.581 30.939C118.408 31.0007 118.242 30.9883 118.089 30.9144C117.836 30.7911 117.71 30.5075 117.789 30.2486C117.843 30.076 117.962 29.9712 118.109 29.9034C118.368 29.7739 118.627 29.6507 118.887 29.5212C118.907 29.5089 118.927 29.5027 118.953 29.4904H118.96Z"
            fill="white" />
        <path
            d="M118.01 28.2575C118.129 28.3315 118.123 28.4979 117.99 28.5534C117.817 28.6274 117.611 28.7198 117.471 28.7568C117.292 28.8061 117.112 28.837 116.919 28.8308C116.753 28.8246 116.593 28.7877 116.46 28.689C116.321 28.5842 116.247 28.4424 116.241 28.2822C116.228 28.0171 116.434 27.7705 116.713 27.7089C116.899 27.6657 117.059 27.7089 117.198 27.7952C117.444 27.937 117.697 28.0849 117.943 28.2267C117.963 28.239 117.983 28.2513 118.01 28.2637V28.2575Z"
            fill="white" />
        <path
            d="M118.688 26.8829C118.688 27.0123 118.521 27.0924 118.402 27.0185C118.242 26.9198 118.056 26.7965 117.956 26.7041C117.823 26.587 117.697 26.4575 117.61 26.2972C117.537 26.1616 117.491 26.0137 117.517 25.8596C117.551 25.6931 117.637 25.5637 117.783 25.4774C118.029 25.3356 118.355 25.3726 118.555 25.5698C118.688 25.6993 118.728 25.8472 118.721 26.0013C118.708 26.2726 118.701 26.5438 118.688 26.815C118.688 26.8335 118.688 26.8582 118.688 26.8829Z"
            fill="white" />
        <path
            d="M120.31 26.7349C120.183 26.7966 120.03 26.7041 120.044 26.5747C120.057 26.3959 120.084 26.1863 120.117 26.0568C120.163 25.8904 120.223 25.724 120.323 25.5822C120.416 25.4527 120.529 25.3418 120.689 25.2863C120.862 25.2247 121.028 25.237 121.181 25.311C121.434 25.4342 121.56 25.7178 121.48 25.9767C121.427 26.1493 121.307 26.2541 121.161 26.3219C120.902 26.4514 120.642 26.5747 120.383 26.7041C120.363 26.7164 120.343 26.7226 120.316 26.7349H120.31Z"
            fill="white" />
        <path
            d="M121.255 27.9616C121.135 27.8877 121.142 27.7212 121.275 27.6658C121.448 27.5918 121.654 27.4993 121.794 27.4623C121.973 27.413 122.153 27.3822 122.346 27.3884C122.512 27.3945 122.671 27.4315 122.804 27.5301C122.944 27.6349 123.017 27.7767 123.024 27.937C123.037 28.2021 122.831 28.4486 122.552 28.5103C122.366 28.5534 122.206 28.5103 122.066 28.424C121.82 28.2822 121.568 28.1342 121.321 27.9925C121.302 27.9801 121.282 27.9678 121.255 27.9555V27.9616Z"
            fill="white" />
        <path
            d="M120.583 29.3424C120.583 29.213 120.749 29.1328 120.869 29.2068C121.028 29.3055 121.215 29.4287 121.314 29.5212C121.447 29.6383 121.574 29.7678 121.66 29.9281C121.733 30.0637 121.78 30.2116 121.753 30.3657C121.72 30.5322 121.633 30.6616 121.487 30.7479C121.241 30.8897 120.915 30.8527 120.716 30.6554C120.583 30.526 120.543 30.3781 120.55 30.2239C120.563 29.9527 120.569 29.6815 120.583 29.4102C120.583 29.3918 120.583 29.3671 120.583 29.3424Z"
            fill="white" />
    </g>
    <defs>
        <clipPath id="clip0_647_87">
            <rect width="133" height="45" fill="white" />
        </clipPath>
    </defs>
</svg>