<svg width="46" height="46" viewBox="0 0 46 46" fill="none" xmlns="http://www.w3.org/2000/svg">
<g clip-path="url(#clip0_123_674)">
<path d="M2.875 8.13055C5.41937 7.0668 9.06775 5.91968 12.6155 5.56318C16.4393 5.17793 19.6823 5.7443 21.5625 7.72518V35.7449C18.8744 34.2212 15.4675 34.0113 12.3251 34.3276C8.93263 34.6726 5.51137 35.6529 2.875 36.6592V8.13055ZM24.4375 7.72518C26.3177 5.7443 29.5608 5.17793 33.3845 5.56318C36.9323 5.91968 40.5806 7.0668 43.125 8.13055V36.6592C40.4857 35.6529 37.0674 34.6697 33.6749 34.3304C30.5296 34.0113 27.1256 34.2183 24.4375 35.7449V7.72518ZM23 5.12618C20.1681 2.69105 16.0626 2.3288 12.3251 2.70255C7.97238 3.14243 3.57938 4.63455 0.842375 5.87943C0.591241 5.99365 0.378279 6.17772 0.22891 6.40967C0.0795417 6.64163 7.63928e-05 6.91167 0 7.18755L0 38.8126C6.65907e-05 39.0531 0.0604818 39.2897 0.175712 39.5008C0.290942 39.712 0.457302 39.8908 0.659556 40.021C0.86181 40.1511 1.09349 40.2285 1.33338 40.2459C1.57326 40.2633 1.81369 40.2203 2.03262 40.1207C4.56838 38.9707 8.65375 37.5878 12.6126 37.1882C16.6635 36.7799 20.0589 37.4383 21.8787 39.7096C22.0134 39.8774 22.1841 40.0129 22.3782 40.1061C22.5723 40.1992 22.7848 40.2475 23 40.2475C23.2152 40.2475 23.4277 40.1992 23.6218 40.1061C23.8159 40.0129 23.9866 39.8774 24.1213 39.7096C25.9411 37.4383 29.3365 36.7799 33.3845 37.1882C37.3463 37.5878 41.4345 38.9707 43.9674 40.1207C44.1863 40.2203 44.4267 40.2633 44.6666 40.2459C44.9065 40.2285 45.1382 40.1511 45.3404 40.021C45.5427 39.8908 45.7091 39.712 45.8243 39.5008C45.9395 39.2897 45.9999 39.0531 46 38.8126V7.18755C45.9999 6.91167 45.9205 6.64163 45.7711 6.40967C45.6217 6.17772 45.4088 5.99365 45.1576 5.87943C42.4206 4.63455 38.0276 3.14243 33.6749 2.70255C29.9374 2.32593 25.8319 2.69105 23 5.12618Z" fill="#DA0202"/>
</g>
<defs>
<clipPath id="clip0_123_674">
<rect width="46" height="46" fill="white"/>
</clipPath>
</defs>
</svg>
