<svg width="23" height="28" viewBox="0 0 23 28" fill="none" xmlns="http://www.w3.org/2000/svg">
<path d="M15.0413 6.1875C13.5538 6.1875 12.2434 6.93125 11.4997 8.1C10.7559 6.93125 9.44551 6.1875 7.95801 6.1875C5.62051 6.1875 3.70801 8.1 3.70801 10.4375C3.70801 14.6521 11.4997 18.9375 11.4997 18.9375C11.4997 18.9375 19.2913 14.6875 19.2913 10.4375C19.2913 8.1 17.3788 6.1875 15.0413 6.1875Z" fill="#F44336"/>
<path d="M22.3812 0H3.82118C2.80774 0 1.83581 0.402587 1.1192 1.1192C0.402587 1.83581 0 2.80774 0 3.82118V26.7482C0 26.893 0.0575125 27.0319 0.159885 27.1342C0.262258 27.2366 0.401105 27.2941 0.545882 27.2941H20.1976C20.3424 27.2941 20.4813 27.2366 20.5836 27.1342C20.686 27.0319 20.7435 26.893 20.7435 26.7482C20.7435 26.6035 20.686 26.4646 20.5836 26.3622C20.4813 26.2599 20.3424 26.2024 20.1976 26.2024H1.09176V25.6565C1.09176 24.9326 1.37933 24.2383 1.89119 23.7265C2.40305 23.2146 3.09729 22.9271 3.82118 22.9271H22.3812C22.526 22.9271 22.6648 22.8695 22.7672 22.7672C22.8695 22.6648 22.9271 22.526 22.9271 22.3812V0.545882C22.9271 0.401105 22.8695 0.262258 22.7672 0.159885C22.6648 0.0575125 22.526 0 22.3812 0ZM21.8353 21.8353H3.82118C3.31259 21.8351 2.8091 21.9367 2.34036 22.134C1.87161 22.3314 1.44709 22.6205 1.09176 22.9844V3.82118C1.09176 3.09729 1.37933 2.40305 1.89119 1.89119C2.40305 1.37933 3.09729 1.09176 3.82118 1.09176H21.8353V21.8353Z" fill="#F44336"/>
</svg>
