<?xml version="1.0" encoding="UTF-8"?>
<svg id="Capa_1" xmlns="http://www.w3.org/2000/svg" xmlns:xlink="http://www.w3.org/1999/xlink" viewBox="0 0 186.68 186.68">
  <defs>
    <style>
      .cls-1, .cls-2, .cls-3 {
        fill: none;
      }

      .cls-4 {
        fill: #d44747;
        opacity: .2;
      }

      .cls-5 {
        fill: #a9733d;
      }

      .cls-6 {
        fill: #fcb390;
      }

      .cls-7 {
        fill: #f8be9f;
      }

      .cls-2 {
        stroke: #f68d6c;
        stroke-width: .96px;
      }

      .cls-2, .cls-3 {
        stroke-linecap: round;
        stroke-linejoin: round;
      }

      .cls-8 {
        fill: url(#linear-gradient-2);
      }

      .cls-3 {
        stroke: #f3920b;
        stroke-width: 1.02px;
      }

      .cls-9 {
        fill: url(#linear-gradient);
      }

      .cls-10 {
        fill: #fdc8a9;
      }

      .cls-11 {
        fill: #fff;
      }

      .cls-12 {
        fill: #fdb293;
      }

      .cls-13 {
        fill: #f99000;
      }

      .cls-14 {
        fill: #f8a688;
        opacity: .45;
      }

      .cls-15 {
        fill: #383838;
      }

      .cls-16 {
        fill: #dfa772;
      }

      .cls-17 {
        fill: #faad3a;
      }

      .cls-18 {
        fill: #ca9154;
      }

      .cls-19 {
        fill: #ededed;
      }

      .cls-20 {
        clip-path: url(#clippath);
      }
    </style>
    <clipPath id="clippath">
      <circle class="cls-1" cx="93.34" cy="93.34" r="88.82" transform="translate(-13.91 170.3) rotate(-80.66)"/>
    </clipPath>
    <linearGradient id="linear-gradient" x1="-22.03" y1="54.94" x2="-12.56" y2="54.94" gradientTransform="translate(155.94 43.82) rotate(18.81)" gradientUnits="userSpaceOnUse">
      <stop offset="0" stop-color="#fda889"/>
      <stop offset="1" stop-color="#fda889" stop-opacity="0"/>
    </linearGradient>
    <linearGradient id="linear-gradient-2" x1="148.67" y1="131.03" x2="140.81" y2="131.13" gradientTransform="translate(-105.99 -7.88) rotate(-12.18)" xlink:href="#linear-gradient"/>
  </defs>
  <circle class="cls-19" cx="93.34" cy="93.34" r="88.82" transform="translate(-13.91 170.3) rotate(-80.66)"/>
  <g class="cls-20">
    <g>
      <g>
        <g>
          <path class="cls-12" d="M123.16,131.85l-30.98,10.11-29.23-11.09s13.5-5.17,13.84-5.28c.33-.95.99-3.8.97-11.5,0-.98-.01-2.06-.04-3.21h28.92c-.03,1.34-.04,2.56-.04,3.67.01,7.36.65,10.11.97,11.04.34.11,15.59,6.26,15.59,6.26Z"/>
          <g>
            <path class="cls-10" d="M117.53,82.31s4.65-1.97,7.39,1.66c2.74,3.63-2.7,15.42-11.9,11.58"/>
            <path class="cls-9" d="M117.53,82.31s4.65-1.97,7.39,1.66c2.74,3.63-2.7,15.42-11.9,11.58"/>
          </g>
          <g>
            <path class="cls-10" d="M66.71,82.65s-4.39-2.49-7.53.8c-3.14,3.29.9,15.63,10.49,12.87"/>
            <path class="cls-8" d="M66.71,82.65s-4.39-2.49-7.53.8c-3.14,3.29.9,15.63,10.49,12.87"/>
          </g>
          <path class="cls-14" d="M106.64,110.88c-.03,1.34-.04,2.56-.04,3.67-3.75,3.89-8.4,6.54-14,6.54-5.98,0-10.92-2.85-14.84-7,0-.98-.01-2.06-.04-3.21h28.92Z"/>
          <path class="cls-7" d="M117.63,62.98c-4.17-17.76-25.69-14.93-25.69-14.93,0,0-21.52-2.83-25.69,14.93,0,0-2.23,20.59,1,31.62,3.23,11.03,11.38,25.15,24.69,25.15s21.25-14.96,24.48-25.99c3.23-11.03,1.21-30.78,1.21-30.78Z"/>
          <g>
            <path class="cls-2" d="M92.6,84.93s-.19,6.78-3.06,9.86c0,0,1.12.93,3.05,2.13"/>
            <path class="cls-15" d="M79.36,87.39c.14,1.37,1.04,2.41,2.02,2.31s1.65-1.29,1.51-2.67c-.14-1.37-1.04-2.41-2.02-2.31s-1.65,1.29-1.51,2.67Z"/>
            <path class="cls-3" d="M85.08,79.56s-7.77-2.47-12.49.73c0,0,5.22-4.79,12.49-.73Z"/>
            <path class="cls-6" d="M81.54,97.12c-.12,1.93-2.71,3.34-5.8,3.16-3.09-.18-5.5-1.9-5.38-3.83.12-1.93,2.71-3.34,5.8-3.16,3.09.18,5.5,1.9,5.38,3.83Z"/>
            <path class="cls-15" d="M104.85,87.45c-.1,1.38-.97,2.44-1.95,2.37-.98-.07-1.69-1.24-1.59-2.62s.97-2.44,1.95-2.37c.98.07,1.69,1.24,1.59,2.62Z"/>
            <path class="cls-3" d="M99.65,79.22s7.83-2.21,12.43,1.14c0,0-5.06-4.96-12.43-1.14Z"/>
            <path class="cls-6" d="M101.9,97.43c.17,1.92,2.81,3.26,5.89,2.98,3.08-.28,5.43-2.07,5.26-3.99-.17-1.92-2.81-3.26-5.89-2.98-3.08.28-5.43,2.07-5.26,3.99Z"/>
          </g>
        </g>
        <path class="cls-18" d="M135.5,186.73c4.33-20.74,11.97-48.9,11.97-48.9l-33.53-9.53-.64.45c-12.94,9.07-30.26,8.73-42.84-.83h0l-34.49,9.9s7.64,28.16,11.97,48.9h87.57Z"/>
        <path class="cls-18" d="M48.89,186.73c.38-1.65.62-2.76.62-2.76l-13.33-46.19s-8.14,2.39-13.04,22.02c-6.95,20.85-8.01,25.99-8.01,25.99,0,0,.12.35.52.94h33.23Z"/>
        <path class="cls-18" d="M169.25,186.73c-.76-2.6-3.14-10.49-8.62-26.93-4.89-19.62-13.16-21.97-13.16-21.97l-13.2,46.14s.21,1.1.55,2.76h34.44Z"/>
        <path class="cls-11" d="M96.58,107.13c-.52,1.04-1.78,2.05-4.69,2.09-3.15.03-4.42-1.16-4.92-2.31-.45-1.05-.25-2.06-.25-2.06h10.16s.28,1.16-.3,2.28Z"/>
        <path class="cls-5" d="M72.39,134.45c.69.85,1.92,1.34,2.89,1.78,1.04.48,2.12.87,3.22,1.2,2.3.69,4.68,1.1,7.05,1.45,2.56.38,5.14.8,7.73.85s5-.41,7.38-1.24c2.71-.94,5.27-2.25,7.79-3.61.34-.19.04-.69-.3-.52-4.47,2.18-9.05,4.54-14.14,4.62-2.56.04-5.1-.36-7.62-.72-2.27-.33-4.55-.69-6.77-1.28-1.23-.33-2.45-.72-3.63-1.22-.59-.25-1.18-.53-1.75-.84s-1.04-.65-1.64-.83c-.22-.07-.33.2-.21.35h0Z"/>
        <path class="cls-5" d="M118.37,188.73h0c5.32,0,9.64-4.32,9.64-9.64v-16.16s-19.28.85-19.28.85v15.31c0,5.32,4.32,9.64,9.64,9.64Z"/>
        <path class="cls-16" d="M21.09,179.83c1.62-4.64,3.61-9.15,5.56-13.66,1.85-4.27,3.6-8.57,5.07-12.99,1.25-3.74,2.57-7.76,5.48-10.58,1.65-1.6,3.73-2.58,5.86-3.39,2.31-.87,4.65-1.67,6.98-2.46,5.39-1.82,10.84-3.48,16.33-4.99.37-.1.21-.68-.16-.58-5.02,1.38-10,2.9-14.94,4.55-2.43.81-4.84,1.65-7.25,2.53-2.09.76-4.21,1.57-6,2.91-3.2,2.4-4.85,6.17-6.13,9.85-.71,2.05-1.35,4.12-2.1,6.16-.86,2.35-1.81,4.67-2.77,6.98-2.15,5.16-4.38,10.28-5.97,15.65,0,0,.01.01.02,0h0Z"/>
        <path class="cls-16" d="M114.25,132.03c2.28.04,4.37.99,6.37,2.02s3.94,2.06,6.09,2.72c2.38.73,4.8,1.28,7.16,2.06s4.86,1.73,7.23,2.74c1.16.5,2.32,1.01,3.47,1.54,1.05.48,2.26.91,3.16,1.66.97.8,1.34,2.13,1.74,3.28s.75,2.34,1.06,3.52c1.25,4.76,1.96,9.66,3.43,14.36,1.63,5.21,4.23,10.11,5.23,15.51.08.45.77.26.69-.19-.91-4.95-3.17-9.48-4.79-14.21s-2.39-9.85-3.64-14.77c-.31-1.23-.65-2.45-1.05-3.65-.37-1.11-.72-2.31-1.33-3.32-.55-.93-1.43-1.48-2.38-1.94-1.16-.56-2.33-1.09-3.51-1.61-4.73-2.08-9.54-3.76-14.53-5.08-1.32-.35-2.64-.73-3.9-1.25s-2.38-1.13-3.55-1.73c-2.18-1.11-4.43-2.13-6.93-2.11-.28,0-.28.42,0,.43h0Z"/>
      </g>
      <g>
        <path class="cls-4" d="M118.19,68.24s.73,5.14.73,14.22c-.05.08-.81,1.36-.81,1.36l.07-8.2c.01-1.84-.45-3.64-1.35-5.25l-5.38-9.64c-1.75,1.47-3.82,2.6-6.14,3.23-3.37.93-6.97,1.08-10.43.57-2.52-.37-5.56-1.04-7.55-2.75-.83-.7-1.49-1.42-2.04-2.12-6.97,6.29-11.34,4.8-15.6,4.3-.44,3.78-4.03,19.38-4.03,19.38v-3.86l3.45-22.44,22.81-1.98,22.81,1.98,3.45,11.2Z"/>
        <path class="cls-17" d="M65.67,83.34s3.59-17.87,4.03-21.65c4.72.56,9.57,2.34,17.97-6.63,14.28,1.94,23.77,3.41,23.77,3.41l5.38,9.64c.9,1.61,1.36,3.41,1.35,5.25l-.07,10.47s1.63-2.01,4.1-1.98c1.4-3.93,4.1-23.52,3.59-25.34-2.69-3.64-7.9-11.41-13.44-13.06-5.54-1.65-21.67-6.61-28.72-5.62-7.05.99-12.33,4.46-15.91,8.6-3.57,4.13-4.65,4.63-4.65,4.63,0,0,.48.5,2.58-.41-3.61,4.38-5.16,9-5.42,10.12-.25,1.12,1.78,21.08,1.78,21.08,0,0,1.36-.26,3.64,1.5Z"/>
        <path class="cls-17" d="M85.2,45.5s-5.67,7.32,2.14,14.01c1.98,1.7,5.03,2.38,7.55,2.75,3.46.51,7.06.36,10.43-.57,9.25-2.55,14.48-12.94,11.92-21.92-.37-1.3-1-2.53-1.69-3.7-.5,1.98-.76,3.27-2.31,4.84.5-1.41.76-5.79-.42-7.77-1.93,2.65-6.76,5.99-13.18,6.12,1.3-.83,1.72-3.39,1.68-4.92-.59,1.32-8.61,3.43-10.71,3.74"/>
        <path class="cls-13" d="M117.89,46.91c-.24,2.68-1.15,5.3-2.54,7.66-1.39,2.36-3.39,4.41-5.8,5.82-2.41,1.41-5.16,2.2-7.92,2.37-1.38.11-2.76.06-4.12-.03-.68-.08-1.36-.19-2.03-.28-.67-.13-1.34-.27-2-.42.68.04,1.36.09,2.03.16.68.02,1.35.05,2.03.05,1.35,0,2.69-.04,4.02-.24,2.64-.35,5.23-1.12,7.48-2.47,2.28-1.3,4.18-3.2,5.67-5.37.75-1.08,1.37-2.26,1.9-3.47.56-1.21.98-2.48,1.3-3.78Z"/>
        <path class="cls-13" d="M109.93,50.3c-.68,1.84-1.7,3.56-2.93,5.13-1.23,1.57-2.71,2.96-4.39,4.08-1.67,1.14-3.63,1.88-5.62,2.23-2,.43-4.06.12-5.97-.31.5,0,1,0,1.49.03.49.02.98.04,1.46-.04l1.45-.13,1.41-.3c1.85-.48,3.65-1.2,5.22-2.29,1.6-1.05,3.04-2.33,4.34-3.75,1.29-1.43,2.5-2.96,3.53-4.63Z"/>
        <path class="cls-13" d="M80.41,49.19c-.06,1.81.08,3.54.74,5.07.31.77.77,1.47,1.35,2.09.56.65,1.27,1.16,1.99,1.75-.9-.21-1.8-.56-2.53-1.18-.4-.27-.69-.66-1.02-1.02-.27-.4-.54-.81-.72-1.25-.37-.89-.54-1.85-.5-2.78.04-.93.24-1.86.68-2.67Z"/>
        <path class="cls-13" d="M84.49,46.91c-.76,1.77-1.2,3.56-1.02,5.33.09.88.26,1.76.61,2.61.13.44.37.84.55,1.27.21.42.46.82.67,1.27-.37-.31-.75-.64-1.08-1-.29-.39-.64-.76-.85-1.21-.53-.85-.79-1.85-.9-2.85-.09-1.01.05-2.03.41-2.96.34-.93.88-1.8,1.62-2.45Z"/>
      </g>
    </g>
  </g>
</svg>